# xmcd CD database file
#
# Track frame offsets:
#	150
#	53731
#	95387
#	152729
#	189382
#	240585
#
# Disc length: 4070 seconds
#
# Revision: 6
# Processed by: cddbd v1.5.2PL0 Copyright (c) Steve Scherf et al.
# Submitted via: CDex 1.51
#
DISCID=400fe406
DTITLE=Various Artist - Smetana [La Moldau] - Dvorak [Symphonie N°9]  (Vaclav Talich, Orch. Philharmonique Tchèque)
DYEAR=1900
DGENRE=Classique
TTITLE0=Bedrich Smetana - La Moldau [Vltava]  (extrait de ''Ma Patrie'' - 1874)  .....  {rec. Prague, 1954}
TTITLE1=Antonin Dvorak - Symphonie N°9 en mi mineur Op.95 ''du Nouveau Monde'' (1893) - I. Adagio - Allegro molto
TTITLE2=Antonin Dvorak - Symphonie N°9 en mi mineur Op.95 ''du Nouveau Monde'' (1893) - II. Latgo
TTITLE3=Antonin Dvorak - Symphonie N°9 en mi mineur Op.95 ''du Nouveau Monde'' (1893) - III. Scherza - Molto vivace
TTITLE4=Antonin Dvorak - Symphonie N°9 en mi mineur Op.95 ''du Nouveau Monde'' (1893) - IV. Allegro con fuoco
TTITLE5=Antonin Dvorak - La sorcière de midi Op.108 - Poème symphonique (1896)  .....  {rec. Prague, 1951}
EXTD=
EXTT0=
EXTT1=
EXTT2=
EXTT3=
EXTT4=
EXTT5=
PLAYORDER=
